<svg width="13" height="13" viewBox="0 0 13 13" fill="none" xmlns="http://www.w3.org/2000/svg">
<path d="M6.5625 10.5938L6.5 10.6562L6.43125 10.5938C3.4625 7.9 1.5 6.11875 1.5 4.3125C1.5 3.0625 2.4375 2.125 3.6875 2.125C4.65 2.125 5.5875 2.75 5.91875 3.6H7.08125C7.4125 2.75 8.35 2.125 9.3125 2.125C10.5625 2.125 11.5 3.0625 11.5 4.3125C11.5 6.11875 9.5375 7.9 6.5625 10.5938ZM9.3125 0.875C8.225 0.875 7.18125 1.38125 6.5 2.175C5.81875 1.38125 4.775 0.875 3.6875 0.875C1.7625 0.875 0.25 2.38125 0.25 4.3125C0.25 6.66875 2.375 8.6 5.59375 11.5188L6.5 12.3438L7.40625 11.5188C10.625 8.6 12.75 6.66875 12.75 4.3125C12.75 2.38125 11.2375 0.875 9.3125 0.875Z" fill="white"/>
</svg>
